<?xml version="1.0" encoding="utf-8"?>
<!-- Generator: Adobe Illustrator 16.0.0, SVG Export Plug-In . SVG Version: 6.00 Build 0)  -->
<!DOCTYPE svg PUBLIC "-//W3C//DTD SVG 1.1//EN" "http://www.w3.org/Graphics/SVG/1.1/DTD/svg11.dtd">
<svg version="1.1"
	 id="svg4230" xmlns:dc="http://purl.org/dc/elements/1.1/" xmlns:svg="http://www.w3.org/2000/svg" xmlns:inkscape="http://www.inkscape.org/namespaces/inkscape" xmlns:sodipodi="http://sodipodi.sourceforge.net/DTD/sodipodi-0.dtd" xmlns:cc="http://creativecommons.org/ns#" xmlns:rdf="http://www.w3.org/1999/02/22-rdf-syntax-ns#" inkscape:version="0.48.5 r10040" sodipodi:docname="New document 4"
	 xmlns="http://www.w3.org/2000/svg" xmlns:xlink="http://www.w3.org/1999/xlink" x="0px" y="0px" width="711.333px"
	 height="243.797px" viewBox="13.881 259.035 711.333 243.797" enable-background="new 13.881 259.035 711.333 243.797"
	 xml:space="preserve">
<sodipodi:namedview  showgrid="false" inkscape:cy="520" inkscape:cx="375" inkscape:zoom="0.35" borderopacity="1.0" id="base" pagecolor="#ffffff" bordercolor="#666666" inkscape:window-width="1243" inkscape:window-maximized="0" inkscape:pageshadow="2" inkscape:pageopacity="0.0" inkscape:window-y="25" inkscape:current-layer="layer1" inkscape:document-units="px" inkscape:window-height="706" inkscape:window-x="25">
	</sodipodi:namedview>
<g id="layer1" inkscape:label="Layer 1" inkscape:groupmode="layer">
	<path id="path4171" inkscape:connector-curvature="0" d="M168.05,317.061c-14.822,9.169-30.139,17.438-45.605,25.451
		c-16.657,7.968-33.332,16.569-51.365,21.067c-3.197,0.798-6.464,1.284-9.696,1.926c-3.201,0.205-6.395,0.667-9.602,0.613
		c-10.558-0.177-24.347-3.659-27.29-15.625c-0.69-2.81-0.124-5.787-0.186-8.68c1.29-3.298,2.113-6.818,3.869-9.895
		c7.434-13.027,20.365-22.142,33.169-29.258c23.578-13.104,20.556-11.165,42.319-18.745c20.4-5.578,43.003-11.477,63.945-4.525
		c10.132,3.363,11.435,5.974,18.877,12.853c1.807,2.957,3.973,5.723,5.42,8.871c5.847,12.718,5.332,27.513,3.696,41.03
		c-0.305,3.914-3.821,9.079-0.366,7.865c0.962-0.338,20.137-13.732,29.626-18.423c2.134-1.055,5.014-1.428,6.608,0.88
		c0.777,1.125,0.777,2.622,1.166,3.932c0.386,5.866-0.165,11.734-0.575,17.58c-0.252,3.592-0.741,7.068-0.19,10.663
		c0.197,1.281,0.724,2.489,1.087,3.732c0.765,0.739,1.319,1.791,2.293,2.217c2.575,1.126,6.917-0.084,9.142-0.741
		c7.499-2.211,14.381-6.014,21.283-9.585c4.511-1.98,16.529-10.727,21.728-7.418c0.658,0.419,1.06,1.144,1.59,1.716
		c3.455,6.65,5.379,7.824,12.842,9.162c6.237,0.418,12.355-0.647,18.47-1.676l-9.63,7.242l0,0
		c-6.339,1.039-12.693,2.177-19.153,1.64c-7.809-1.513-9.9-2.668-13.654-9.576c-0.396-0.388-0.698-0.907-1.19-1.162
		c-4.579-2.378-16.299,5.853-20.251,7.488c-7.042,3.586-14.151,7.553-21.852,9.585c-3.146,0.83-7.081,1.74-10.211-0.038
		c-1.093-0.62-1.674-1.875-2.511-2.812c-0.356-1.358-0.887-2.681-1.071-4.072c-0.495-3.741,0.082-7.156,0.355-10.889
		c0.413-5.638,0.359-10.521,0.323-16.965c-0.083-3.307,0.46-6.055-0.474-6.681c1.06,1.625-6.815,5-11.632,7.911
		c-5.433,3.296-10.823,6.664-16.3,9.886c-0.621,0.364-9.579,6.533-10.368,1.859c-0.702-4.156,1.109-5.656,3.859-14.906
		s1.133-20.915-4.547-33.701c-1.364-3.07-3.436-5.773-5.154-8.66c-7.083-6.668-8.435-9.299-18.117-12.626
		c-20.548-7.059-42.811-1.15-62.837,4.404c-5.833,2.08-11.672,4.147-17.5,6.24c-2.518,0.904-5.182,1.487-7.539,2.752
		c-12.459,6.685-25.057,15.65-32.305,28.149c-1.679,2.896-2.489,6.216-3.734,9.324c0.018,2.709-0.561,5.488,0.052,8.127
		c2.676,11.519,16.242,14.617,26.238,14.681c3.164,0.021,6.311-0.468,9.466-0.702c3.202-0.665,6.438-1.185,9.606-1.992
		c17.922-4.568,34.542-13.049,51.068-21.106c6.234-3.273,12.396-6.684,18.655-9.909c1.199-0.617-4.609,2.792-3.511,2.009
		c2.933-2.092,6.26-3.703,9.295-5.647L168.05,317.061L168.05,317.061z"/>
	<path id="path4187" inkscape:connector-curvature="0" d="M334.941,303.759c6.555,1.048,13.217,1.18,19.839,1.395
		c19.239-0.738,36.913-9.787,53.821-18.178c8.83-4.376,16.796-10.004,24.751-15.818c1.062-0.776,2.004-1.72,3.134-2.394
		c3.987-2.38,8.126-4.5,12.189-6.75c-0.034,1.209,0.199,2.458-0.103,3.63c-0.501,1.946-1.517,3.724-2.275,5.586
		c-0.909,3.075-1.975,6.108-2.725,9.226c-3.88,16.111-5.557,32.801-7.828,49.18c-4.768,36.063-11.102,72.211-24.155,106.32
		c-2.182,5.703-4.798,11.232-7.196,16.847c-6.188,11.36-12.87,25.698-23.947,33.394c-5.961,4.142-12.264,7.876-18.906,10.803
		c-7.22,3.181-13.428,1.845-20.896,1.352c-10.776-2.314-20.647-6.743-28.972-14.068c-2.522-2.219-4.614-4.884-6.921-7.327
		l9.826-5.979l0,0c2.239,2.402,4.257,5.031,6.718,7.207c8.189,7.239,17.941,11.461,28.598,13.524
		c17.159,0.718,3.866,1.079,20.501-1.845c0.199-0.036-0.39,0.695-0.238,0.561c3.021-2.658,6.213-5.163,8.887-8.171
		c7.524-8.47,10.726-15.415,16.375-25.334c2.526-5.648,5.285-11.197,7.58-16.944c13.519-33.866,19.983-69.993,24.1-106.068
		c1.346-11.889,2.495-23.801,4.05-35.664c0.841-6.417,2.619-20.81,5.715-27.083c0.258-0.523,0.933-0.702,1.399-1.052
		c3.312-1.999,6.529-4.168,9.939-5.995c1.327-0.71-2.435,1.768-3.663,2.634c-2.038,1.437-4.072,2.878-6.134,4.276
		c-12.315,8.352-25.233,15.756-38.344,22.779c-17.445,8.618-35.628,17.868-55.444,18.697c-6.85-0.126-13.717-0.335-20.522-1.181
		L334.941,303.759L334.941,303.759z"/>
	<path id="path4193" inkscape:connector-curvature="0" d="M468.848,338.408c1.74,4.483,5.561,6.958,9.863,8.6
		c4.176,0.989,8.423,0.292,12.354-1.361c1.087-0.457,4.156-2.222,3.122-1.657c-2.761,1.51-5.535,2.993-8.302,4.489
		c3.126-2.822,6.114-5.355,1.048-7.746c-0.604-0.733-1.996-0.177-2.68-0.812c-3.437-3.186,11.964-7.828,12.255-7.966
		c0.675-0.32,1.486-0.157,2.229-0.229c0.948-0.093,1.896-0.177,2.842-0.267c3.682-0.114,7.413-1.064,11.105-0.63
		c1.133,0.133,2.873,0.656,3.985,0.966c2.501,0.602,5.114,1.508,7.725,1.477c1.123-0.013,3.633-0.559,4.713-0.772
		c4.664-1.421,9.114-3.424,13.753-4.911c4.959-1.411,10.077-1.93,15.206-2.184c4.293-0.153,8.543,0.762,12.814,1.153
		c5.712,0.207,10.551-3.07,15.769-4.881c0.775,0.113,1.64-0.038,2.324,0.339c2.94,1.615,5.009,8.31,6.062,11.005
		c2.909,7.438,2.408,6.368,4.879,14.405c3.647,12.952,4.78,24.901-1.58,37.313c-4.638,9.052-7.837,11.318-14.854,18.71
		c-3.434,2.619-6.648,5.55-10.301,7.856c-15.562,9.827-34.601,20.817-53.988,18.994c-2.828-0.266-5.523-1.318-8.284-1.977
		c-1.756-1.449-4.182-2.345-5.266-4.347c-2.959-5.484,1.093-11.383,4.368-15.232c13.038-15.326,36.712-26.618,53.389-36.148
		c24.706-12.361,50.277-23.426,77.125-30.241c12.287-3.12,16.991-3.535,29.157-5.357c12.931-1.272,25.984-1.814,38.966-1.026
		l-10.503,7.458l0,0c-12.225-2.024-24.84-0.702-37.104,0.039c-11.806,1.658-16.503,2.031-28.424,4.975
		c-26.66,6.583-52.022,17.56-76.427,29.983c-12.69,7.163-25.849,14.473-35.579,25.624c-2.596,2.977-6.963,8.727-4.646,13.483
		c0.903,1.856,3.112,2.712,4.67,4.069c2.616,0.637,5.17,1.656,7.852,1.911c7.075,0.673,14.195-0.692,20.905-2.792
		c3.978-1.244,7.755-3.051,11.631-4.578c0.664-0.263,1.403-0.386,1.991-0.792c3.518-2.422,6.848-5.103,10.272-7.654
		c6.991-7.23,10.017-9.28,14.677-18.146c6.387-12.151,5.338-23.714,1.55-36.414c-2.496-7.532-2.149-7.137-5.229-14.06
		c-0.803-1.806-3.408-8.595-5.891-9.493c-0.598-0.216-1.271,0.017-1.906,0.025c-5.288,1.962-10.318,5.024-16.18,4.482
		c-4.224-0.402-8.435-1.272-12.691-1.007c-5.051,0.299-10.103,0.879-14.946,2.424c-4.626,1.614-9.127,3.631-13.902,4.783
		c-4.402,0.677-8.619,0.37-12.853-1.101c-4.859-1.235-9.723-0.648-14.66-0.063c-0.973,0.115-1.946,0.224-2.921,0.344
		c-0.795,0.097-3.002,0.823-2.387,0.31c3.052-2.548,6.797-4.159,9.93-6.607c0.241-0.189-0.879-0.422-0.66-0.637
		c0.681-0.67,2.136,2.721,2.677,1.031c5.255,3.122,3.992,6.467-0.094,10.221c-9.227,5.545-18.425,13.342-29.794,10.389
		c-4.552-1.901-8.423-4.677-10.667-9.218L468.848,338.408L468.848,338.408z"/>
</g>
</svg>
