<?xml version="1.0" encoding="UTF-8" standalone="no"?>
<!-- Created with Inkscape (http://www.inkscape.org/) -->

<svg
   xmlns:dc="http://purl.org/dc/elements/1.1/"
   xmlns:cc="http://creativecommons.org/ns#"
   xmlns:rdf="http://www.w3.org/1999/02/22-rdf-syntax-ns#"
   xmlns:svg="http://www.w3.org/2000/svg"
   xmlns="http://www.w3.org/2000/svg"
   xmlns:sodipodi="http://sodipodi.sourceforge.net/DTD/sodipodi-0.dtd"
   xmlns:inkscape="http://www.inkscape.org/namespaces/inkscape"
   width="744.09448819"
   height="1052.3622047"
   id="svg4230"
   version="1.1"
   inkscape:version="0.48.5 r10040"
   sodipodi:docname="New document 4">
  <defs
     id="defs4232" />
  <sodipodi:namedview
     id="base"
     pagecolor="#ffffff"
     bordercolor="#666666"
     borderopacity="1.0"
     inkscape:pageopacity="0.0"
     inkscape:pageshadow="2"
     inkscape:zoom="0.35"
     inkscape:cx="375"
     inkscape:cy="520"
     inkscape:document-units="px"
     inkscape:current-layer="layer1"
     showgrid="false"
     inkscape:window-width="1243"
     inkscape:window-height="706"
     inkscape:window-x="25"
     inkscape:window-y="25"
     inkscape:window-maximized="0" />
  <metadata
     id="metadata4235">
    <rdf:RDF>
      <cc:Work
         rdf:about="">
        <dc:format>image/svg+xml</dc:format>
        <dc:type
           rdf:resource="http://purl.org/dc/dcmitype/StillImage" />
        <dc:title></dc:title>
      </cc:Work>
    </rdf:RDF>
  </metadata>
  <g
     inkscape:label="Layer 1"
     inkscape:groupmode="layer"
     id="layer1">
    <path
       style="fill:#000000"
       id="path4171"
       d="m 165.69804,315.65054 c -15.24421,9.43065 -30.99795,17.93453 -46.90581,26.17535 -17.13222,8.19606 -34.282334,17.04189 -52.828744,21.66792 -3.28831,0.82021 -6.64818,1.32078 -9.97227,1.98118 -3.29189,0.21035 -6.57754,0.68654 -9.87568,0.63099 -10.85809,-0.18282 -25.04099,-3.76288 -28.06744,-16.07111 -0.71072,-2.89038 -0.12762,-5.95164 -0.19142,-8.92752 1.32622,-3.39207 2.17358,-7.0129 3.97867,-10.17625 7.64552,-13.39852 20.94533,-22.77352 34.11516,-30.09274 24.24958,-13.47685 21.14204,-11.48336 43.52506,-19.27938 20.982004,-5.73736 44.229754,-11.80395 65.767354,-4.65461 10.42117,3.45928 11.76153,6.14393 19.41641,13.2192 1.85799,3.04097 4.08547,5.885 5.57397,9.12289 6.01334,13.08065 5.48425,28.29731 3.80204,42.20123 1.70205,-1.30291 -3.93033,9.3373 -0.37722,8.08872 0.99032,-0.34807 1.8461,-0.99983 2.76265,-1.51146 1.62674,-0.90812 4.12515,-1.03889 4.86706,-2.74784 0.6913,-1.59236 -3.11503,1.53319 -4.67254,2.29979 8.88841,-6.17594 17.75425,-12.16393 27.51383,-16.98869 2.19462,-1.08494 5.15682,-1.46945 6.79669,0.90525 0.79892,1.15693 0.79941,2.69591 1.19911,4.04387 0.39754,6.03275 -0.16946,12.06764 -0.59141,18.08081 -0.25922,3.69405 -0.76214,7.26989 -0.19537,10.96715 0.20194,1.31728 0.74504,2.55916 1.11757,3.83877 0.78622,0.75984 1.35695,1.84123 2.35864,2.27956 2.64875,1.15905 7.11451,-0.0869 9.40358,-0.76176 7.71157,-2.27353 14.79105,-6.18524 21.88926,-9.85744 4.63961,-2.03799 17.00076,-11.03283 22.34751,-7.63039 0.67655,0.43054 1.08993,1.17661 1.63489,1.76485 3.55373,6.83983 5.53285,8.04639 13.2087,9.42248 6.41522,0.43115 12.70704,-0.66607 18.99676,-1.72386 0,0 -9.90488,7.44831 -9.90488,7.44831 l 0,0 c -6.51999,1.06842 -13.05458,2.23953 -19.69919,1.68691 -8.03203,-1.55589 -10.18286,-2.74452 -14.04297,-9.84965 -0.40809,-0.3983 -0.71817,-0.9322 -1.22429,-1.19496 -4.70985,-2.44548 -16.76345,6.01962 -20.82843,7.70146 -7.24302,3.6891 -14.5543,7.7692 -22.47532,9.859 -3.23458,0.85342 -7.2823,1.78907 -10.50186,-0.0392 -1.12403,-0.63824 -1.72139,-1.92878 -2.58209,-2.89317 -0.36728,-1.39583 -0.91244,-2.75671 -1.10185,-4.18756 -0.50923,-3.84681 0.0839,-7.35974 0.36545,-11.1996 0.4251,-5.79853 0.86258,-11.63992 0.33251,-17.44811 -0.48261,-1.7887 -0.27561,-4.04799 -2.86948,-4.11386 -1.22301,-0.031 -4.35898,1.8215 -3.55925,0.89569 1.51966,-1.75928 4.75027,-5.6496 5.941,-3.65297 2.47023,4.14214 -14.95247,3.81013 -11.96354,8.13669 -5.58825,3.38915 -11.13176,6.85318 -16.76473,10.1674 -0.63875,0.37585 -9.85139,6.72023 -10.66338,1.91206 -0.46609,-2.75992 2.86939,-5.43386 2.01219,-8.15242 2.20358,-13.78637 3.12277,-28.68904 -2.71942,-41.83916 -1.40281,-3.15756 -3.5339,-5.93833 -5.30085,-8.9075 -7.28451,-6.85766 -8.67489,-9.56366 -18.63356,-12.98503 -21.13409,-7.26076 -44.03124,-1.18317 -64.628674,4.52892 -5.99956,2.13931 -12.00395,4.26513 -17.99867,6.41794 -2.58939,0.9299 -5.32913,1.52941 -7.75353,2.83015 -12.81405,6.87495 -25.77166,16.0971 -33.22517,28.95271 -1.72708,2.97882 -2.56019,6.39299 -3.84028,9.58948 0.0178,2.78607 -0.57699,5.64434 0.0536,8.35819 2.75236,11.84652 16.70493,15.03444 26.98513,15.09935 3.2542,0.0205 6.49072,-0.48108 9.73608,-0.72162 3.29345,-0.68297 6.62101,-1.21833 9.88036,-2.04892 18.43332,-4.69763 35.527444,-13.42017 52.523784,-21.70777 6.41208,-3.36568 12.7495,-6.87349 19.1866,-10.19108 1.23272,-0.63532 -4.73995,2.87181 -3.61097,2.06642 3.01611,-2.15164 6.43836,-3.80894 9.56036,-5.80874 0,0 12.71838,-4.97634 12.71838,-4.97634 z"
       inkscape:connector-curvature="0" />
    <path
       style="fill:#000000"
       id="path4187"
       d="m 337.34621,301.97012 c 6.74101,1.07753 13.59431,1.21363 20.40478,1.43427 19.78643,-0.75918 37.96518,-10.06527 55.35456,-18.69683 9.08326,-4.5003 17.27586,-10.28944 25.45682,-16.26861 1.09145,-0.7977 2.06189,-1.76935 3.22279,-2.46208 4.10201,-2.44773 8.35786,-4.62794 12.53678,-6.9419 -0.0347,1.24447 0.20673,2.52792 -0.10419,3.73343 -0.51652,2.00264 -1.5605,3.83071 -2.34074,5.74607 -0.93441,3.16305 -2.03132,6.28258 -2.80323,9.48916 -3.98879,16.56976 -5.7142,33.73561 -8.04924,50.5815 -4.90399,37.09019 -11.41771,74.26922 -24.84433,109.35097 -2.24508,5.86602 -4.93529,11.55189 -7.40293,17.32783 -6.36354,11.68303 -13.23584,26.43009 -24.62943,34.34558 -6.13073,4.25918 -12.61332,8.10073 -19.44467,11.11061 -7.4252,3.27154 -13.81101,1.8975 -21.49188,1.38985 -11.08291,-2.37942 -21.23535,-6.93547 -29.79783,-14.46824 -2.59442,-2.28246 -4.74569,-5.02402 -7.11854,-7.53603 0,0 10.10667,-6.14931 10.10667,-6.14931 l 0,0 c 2.3029,2.47047 4.37819,5.17472 6.9087,7.41154 8.42288,7.44534 18.45258,11.78808 29.41343,13.90903 17.64775,0.73901 3.97628,1.11098 21.08475,-1.89726 0.20567,-0.0362 -0.39961,0.7154 -0.24283,0.5775 3.10723,-2.73353 6.39059,-5.30966 9.139,-8.40376 7.73844,-8.71167 11.03114,-15.85441 16.84206,-26.05599 2.59832,-5.80903 5.4356,-11.51693 7.79496,-17.42697 13.90498,-34.83125 20.55612,-71.98843 24.78678,-109.09217 1.38523,-12.22712 2.56754,-24.47912 4.16615,-36.68017 0.86484,-6.60074 2.69452,-21.40307 5.87844,-27.8556 0.26546,-0.538 0.9585,-0.72176 1.43776,-1.08264 3.40815,-2.0553 6.71581,-4.28728 10.22445,-6.1659 1.36399,-0.73032 -2.50445,1.81763 -3.76882,2.70938 -2.09479,1.47744 -4.18688,2.95926 -6.30842,4.39801 -12.66652,8.58997 -25.95225,16.2048 -39.43796,23.42819 -17.94019,8.8631 -36.64225,18.37721 -57.02261,19.22951 -7.04581,-0.12886 -14.10814,-0.34459 -21.1079,-1.21494 0,0 11.15667,-7.77403 11.15667,-7.77403 z"
       inkscape:connector-curvature="0" />
    <path
       style="fill:#000000"
       id="path4193"
       d="m 475.07069,337.60652 c 1.78985,4.61067 5.7179,7.15613 10.14453,8.84436 4.29537,1.01692 8.66275,0.30098 12.70645,-1.39933 1.11688,-0.46961 4.27403,-2.28464 3.21095,-1.7034 -2.83905,1.55227 -5.6927,3.07774 -8.53904,4.61661 3.21547,-2.90217 6.29031,-5.50776 1.07877,-7.96549 -0.62178,-0.75488 -2.05213,-0.1833 -2.75614,-0.83603 -3.53411,-3.27678 12.30541,-8.05082 12.6046,-8.19263 0.69416,-0.32905 1.52799,-0.16067 2.29254,-0.23542 0.97362,-0.0952 1.94795,-0.1829 2.92192,-0.27435 3.78624,-0.11671 7.62368,-1.09454 11.42213,-0.64882 1.16561,0.13677 2.95373,0.67672 4.09819,0.99454 2.57284,0.61868 5.26133,1.55045 7.94532,1.51885 1.15485,-0.0136 3.73799,-0.57582 4.84918,-0.79437 4.79527,-1.46194 9.37217,-3.5215 14.14283,-5.05038 5.10077,-1.45139 10.36434,-1.98499 15.63893,-2.24647 4.41722,-0.15742 8.78746,0.78333 13.18096,1.18622 5.87511,0.21236 10.85068,-3.15793 16.21775,-5.02059 0.79711,0.11603 1.68539,-0.0399 2.39134,0.34808 3.02286,1.66111 5.15071,8.54688 6.23474,11.31925 2.99121,7.6498 2.47633,6.55017 5.01682,14.81548 3.75251,13.32152 4.91623,25.61103 -1.62439,38.37599 -4.77031,9.31001 -8.06192,11.64113 -15.27845,19.24406 -3.53111,2.69332 -6.83832,5.70869 -10.59331,8.0799 -16.00626,10.10769 -35.58833,21.41071 -55.52778,19.53579 -2.90724,-0.27338 -5.68069,-1.35526 -8.52104,-2.03292 -1.80462,-1.49051 -4.30172,-2.41203 -5.41385,-4.47152 -3.04578,-5.64022 1.12371,-11.70797 4.49173,-15.66677 13.4099,-15.76228 37.75787,-27.37564 54.91018,-37.17746 25.40987,-12.71395 51.7107,-24.0945 79.3244,-31.10387 12.6374,-3.20784 17.47449,-3.63555 29.98836,-5.50947 13.29881,-1.30825 26.7255,-1.86599 40.07564,-1.05473 0,0 -10.80154,7.67035 -10.80154,7.67035 l 0,0 c -12.57279,-2.08291 -25.54781,-0.72197 -38.1616,0.0392 -12.14128,1.70532 -16.97433,2.08968 -29.2328,5.11682 -27.42006,6.77124 -53.50721,18.06056 -78.60579,30.83754 -13.05263,7.36764 -26.58639,14.88532 -36.59334,26.35498 -2.67039,3.06071 -7.16239,8.97498 -4.78,13.86726 0.9296,1.90891 3.2015,2.78986 4.80224,4.18479 2.69198,0.6552 5.31782,1.70309 8.07592,1.96554 7.27711,0.6924 14.60065,-0.71147 21.50331,-2.87155 4.08871,-1.27949 7.97349,-3.1372 11.95922,-4.70837 0.68415,-0.2697 1.44471,-0.39728 2.05041,-0.81429 3.61705,-2.49058 7.04296,-5.2479 10.56445,-7.87185 7.19119,-7.43629 10.30248,-9.54462 15.09499,-18.66263 6.56879,-12.4975 5.48973,-24.38961 1.59389,-37.45212 -2.56734,-7.74632 -2.21054,-7.34131 -5.37683,-14.46087 -0.82624,-1.85782 -3.50665,-8.84006 -6.05891,-9.76385 -0.61443,-0.2224 -1.30678,0.017 -1.96016,0.0254 -5.44076,2.01796 -10.6142,5.16622 -16.64137,4.61023 -4.34398,-0.41333 -8.67586,-1.30869 -13.05289,-1.03606 -5.19567,0.30699 -10.39086,0.90373 -15.37247,2.49316 -4.75865,1.66 -9.38696,3.73456 -14.29905,4.9192 -4.52663,0.69601 -8.86518,0.38043 -13.2189,-1.13272 -4.99847,-1.26969 -9.99905,-0.66663 -15.07715,-0.0636 -1.00154,0.11774 -2.00371,0.23022 -3.00462,0.35326 -0.81877,0.10071 -3.08754,0.84672 -2.45431,0.318 3.13843,-2.62056 6.99023,-4.27742 10.21166,-6.79523 0.24789,-0.19374 -0.90442,-0.43378 -0.68013,-0.65442 0.70142,-0.69002 2.19751,2.79887 2.75471,1.06044 5.40346,3.21004 4.10512,6.65125 -0.0984,10.51176 -9.48775,5.70289 -18.94916,13.72247 -30.64116,10.68537 -4.68219,-1.95594 -8.6625,-4.81023 -10.97208,-9.48032 0,0 11.83841,-6.74062 11.83841,-6.74062 z"
       inkscape:connector-curvature="0" />
  </g>
</svg>
